<svg width="913" height="478" viewBox="0 0 913 478" fill="none" xmlns="http://www.w3.org/2000/svg">
<path d="M194.771 107.358C193.479 107.358 192.345 108.018 191.738 109.107H191.598V107.525H190.156V120.164H191.668V115.576H191.809C192.327 116.578 193.417 117.167 194.771 117.167C197.179 117.167 198.752 115.225 198.752 112.263C198.752 109.283 197.188 107.358 194.771 107.358ZM194.41 115.805C192.705 115.805 191.624 114.434 191.624 112.263C191.624 110.083 192.705 108.721 194.419 108.721C196.15 108.721 197.188 110.048 197.188 112.263C197.188 114.478 196.15 115.805 194.41 115.805ZM205.019 117.167C207.717 117.167 209.387 115.304 209.387 112.263C209.387 109.213 207.717 107.358 205.019 107.358C202.32 107.358 200.65 109.213 200.65 112.263C200.65 115.304 202.32 117.167 205.019 117.167ZM205.019 115.805C203.226 115.805 202.215 114.504 202.215 112.263C202.215 110.013 203.226 108.721 205.019 108.721C206.812 108.721 207.822 110.013 207.822 112.263C207.822 114.504 206.812 115.805 205.019 115.805ZM212.393 105.073V107.525H210.863V108.791H212.393V114.539C212.393 116.35 213.175 117.07 215.126 117.07C215.425 117.07 215.715 117.035 216.014 116.982V115.708C215.732 115.734 215.583 115.743 215.311 115.743C214.326 115.743 213.904 115.269 213.904 114.152V108.791H216.014V107.525H213.904V105.073H212.393ZM221.217 115.84C220.118 115.84 219.301 115.277 219.301 114.311C219.301 113.361 219.934 112.86 221.375 112.764L223.924 112.597V113.467C223.924 114.82 222.772 115.84 221.217 115.84ZM220.936 117.167C222.201 117.167 223.238 116.613 223.854 115.603H223.994V117H225.436V110.514C225.436 108.545 224.144 107.358 221.832 107.358C219.811 107.358 218.316 108.36 218.114 109.881H219.644C219.854 109.134 220.646 108.703 221.779 108.703C223.194 108.703 223.924 109.345 223.924 110.514V111.375L221.19 111.542C218.984 111.674 217.736 112.649 217.736 114.346C217.736 116.077 219.099 117.167 220.936 117.167ZM228.863 105.073V107.525H227.334V108.791H228.863V114.539C228.863 116.35 229.646 117.07 231.597 117.07C231.896 117.07 232.186 117.035 232.484 116.982V115.708C232.203 115.734 232.054 115.743 231.781 115.743C230.797 115.743 230.375 115.269 230.375 114.152V108.791H232.484V107.525H230.375V105.073H228.863ZM238.522 117.167C241.221 117.167 242.891 115.304 242.891 112.263C242.891 109.213 241.221 107.358 238.522 107.358C235.824 107.358 234.154 109.213 234.154 112.263C234.154 115.304 235.824 117.167 238.522 117.167ZM238.522 115.805C236.729 115.805 235.719 114.504 235.719 112.263C235.719 110.013 236.729 108.721 238.522 108.721C240.315 108.721 241.326 110.013 241.326 112.263C241.326 114.504 240.315 115.805 238.522 115.805ZM255.055 117.167C257.454 117.167 259.027 115.225 259.027 112.263C259.027 109.283 257.463 107.358 255.055 107.358C253.754 107.358 252.603 108 252.084 109.02H251.943V103.764H250.432V117H251.873V115.488H252.014C252.611 116.543 253.736 117.167 255.055 117.167ZM254.703 108.721C256.435 108.721 257.463 110.048 257.463 112.263C257.463 114.478 256.435 115.805 254.703 115.805C252.98 115.805 251.908 114.451 251.908 112.263C251.908 110.074 252.98 108.721 254.703 108.721ZM269.064 107.525H267.553V113.133C267.553 114.794 266.639 115.787 264.969 115.787C263.457 115.787 262.824 114.996 262.824 113.291V107.525H261.312V113.66C261.312 115.901 262.42 117.167 264.547 117.167C265.997 117.167 267.008 116.569 267.482 115.515H267.623V117H269.064V107.525ZM271.912 117H273.424V111.393C273.424 109.731 274.399 108.721 275.911 108.721C277.423 108.721 278.144 109.529 278.144 111.234V117H279.655V110.865C279.655 108.615 278.469 107.358 276.342 107.358C274.892 107.358 273.969 107.974 273.494 109.02H273.354V107.525H271.912V117Z" fill="#816042"/>
<path d="M639.135 153.167C641.534 153.167 643.107 151.225 643.107 148.263C643.107 145.283 641.543 143.358 639.135 143.358C637.834 143.358 636.683 144 636.164 145.02H636.023V139.764H634.512V153H635.953V151.488H636.094C636.691 152.543 637.816 153.167 639.135 153.167ZM638.783 144.721C640.515 144.721 641.543 146.048 641.543 148.263C641.543 150.478 640.515 151.805 638.783 151.805C637.061 151.805 635.988 150.451 635.988 148.263C635.988 146.074 637.061 144.721 638.783 144.721ZM653.145 143.525H651.633V149.133C651.633 150.794 650.719 151.787 649.049 151.787C647.537 151.787 646.904 150.996 646.904 149.291V143.525H645.393V149.66C645.393 151.901 646.5 153.167 648.627 153.167C650.077 153.167 651.088 152.569 651.562 151.515H651.703V153H653.145V143.525ZM655.992 153H657.504V147.129C657.504 145.793 658.55 144.826 659.991 144.826C660.29 144.826 660.835 144.879 660.958 144.914V143.402C660.765 143.376 660.448 143.358 660.202 143.358C658.945 143.358 657.855 144.009 657.574 144.932H657.434V143.525H655.992V153ZM666.416 151.523C664.658 151.523 663.674 150.188 663.674 148.122C663.674 146.057 664.658 144.721 666.416 144.721C668.165 144.721 669.228 146.057 669.228 148.122C669.228 150.188 668.174 151.523 666.416 151.523ZM666.486 156.639C669.07 156.639 670.705 155.285 670.705 153.167V143.525H669.264V145.028H669.123C668.578 144.009 667.409 143.358 666.082 143.358C663.647 143.358 662.109 145.283 662.109 148.122C662.109 150.961 663.63 152.859 666.082 152.859C667.383 152.859 668.455 152.271 669.053 151.225H669.193V153.088C669.193 154.485 668.183 155.32 666.486 155.32C665.124 155.32 664.28 154.819 664.113 154.046H662.514C662.742 155.61 664.201 156.639 666.486 156.639ZM677.332 144.694C678.835 144.694 679.837 145.802 679.872 147.48H674.651C674.766 145.802 675.82 144.694 677.332 144.694ZM679.828 150.548C679.433 151.383 678.606 151.831 677.385 151.831C675.776 151.831 674.73 150.645 674.651 148.772V148.702H681.463V148.122C681.463 145.178 679.907 143.358 677.35 143.358C674.748 143.358 673.078 145.292 673.078 148.271C673.078 151.269 674.722 153.167 677.35 153.167C679.424 153.167 680.883 152.174 681.34 150.548H679.828ZM683.836 153H685.348V147.129C685.348 145.793 686.394 144.826 687.835 144.826C688.134 144.826 688.679 144.879 688.802 144.914V143.402C688.608 143.376 688.292 143.358 688.046 143.358C686.789 143.358 685.699 144.009 685.418 144.932H685.277V143.525H683.836V153ZM695.552 146.118C695.552 147.489 696.36 148.254 698.136 148.685L699.762 149.08C700.772 149.326 701.265 149.766 701.265 150.416C701.265 151.286 700.351 151.893 699.076 151.893C697.863 151.893 697.107 151.383 696.853 150.583H695.297C695.464 152.156 696.914 153.167 699.023 153.167C701.177 153.167 702.82 151.998 702.82 150.302C702.82 148.939 701.959 148.166 700.175 147.735L698.716 147.384C697.6 147.111 697.072 146.707 697.072 146.057C697.072 145.213 697.951 144.642 699.076 144.642C700.219 144.642 700.957 145.143 701.159 145.898H702.653C702.451 144.343 701.071 143.358 699.085 143.358C697.072 143.358 695.552 144.545 695.552 146.118ZM708.111 151.84C707.013 151.84 706.195 151.277 706.195 150.311C706.195 149.361 706.828 148.86 708.27 148.764L710.818 148.597V149.467C710.818 150.82 709.667 151.84 708.111 151.84ZM707.83 153.167C709.096 153.167 710.133 152.613 710.748 151.603H710.889V153H712.33V146.514C712.33 144.545 711.038 143.358 708.727 143.358C706.705 143.358 705.211 144.36 705.009 145.881H706.538C706.749 145.134 707.54 144.703 708.674 144.703C710.089 144.703 710.818 145.345 710.818 146.514V147.375L708.085 147.542C705.879 147.674 704.631 148.649 704.631 150.346C704.631 152.077 705.993 153.167 707.83 153.167ZM722.789 143.525H721.277V149.133C721.277 150.794 720.363 151.787 718.693 151.787C717.182 151.787 716.549 150.996 716.549 149.291V143.525H715.037V149.66C715.037 151.901 716.145 153.167 718.271 153.167C719.722 153.167 720.732 152.569 721.207 151.515H721.348V153H722.789V143.525ZM733.477 146.426C733.213 144.738 731.807 143.358 729.504 143.358C726.85 143.358 725.162 145.274 725.162 148.228C725.162 151.242 726.858 153.167 729.513 153.167C731.789 153.167 733.204 151.884 733.477 150.144H731.947C731.666 151.216 730.778 151.805 729.504 151.805C727.816 151.805 726.727 150.416 726.727 148.228C726.727 146.083 727.799 144.721 729.504 144.721C730.866 144.721 731.701 145.485 731.947 146.426H733.477ZM739.488 144.694C740.991 144.694 741.993 145.802 742.028 147.48H736.808C736.922 145.802 737.977 144.694 739.488 144.694ZM741.984 150.548C741.589 151.383 740.763 151.831 739.541 151.831C737.933 151.831 736.887 150.645 736.808 148.772V148.702H743.619V148.122C743.619 145.178 742.063 143.358 739.506 143.358C736.904 143.358 735.234 145.292 735.234 148.271C735.234 151.269 736.878 153.167 739.506 153.167C741.58 153.167 743.039 152.174 743.496 150.548H741.984Z" fill="#816042"/>
<path d="M634.424 289H635.936V283.129C635.936 281.793 636.981 280.826 638.423 280.826C638.722 280.826 639.267 280.879 639.39 280.914V279.402C639.196 279.376 638.88 279.358 638.634 279.358C637.377 279.358 636.287 280.009 636.006 280.932H635.865V279.525H634.424V289ZM644.795 280.694C646.298 280.694 647.3 281.802 647.335 283.48H642.114C642.228 281.802 643.283 280.694 644.795 280.694ZM647.291 286.548C646.895 287.383 646.069 287.831 644.848 287.831C643.239 287.831 642.193 286.645 642.114 284.772V284.702H648.926V284.122C648.926 281.178 647.37 279.358 644.812 279.358C642.211 279.358 640.541 281.292 640.541 284.271C640.541 287.269 642.185 289.167 644.812 289.167C646.887 289.167 648.346 288.174 648.803 286.548H647.291ZM654.806 289.167C656.115 289.167 657.24 288.543 657.838 287.488H657.978V289H659.42V275.764H657.908V281.02H657.776C657.24 279.982 656.124 279.358 654.806 279.358C652.397 279.358 650.824 281.292 650.824 284.263C650.824 287.242 652.38 289.167 654.806 289.167ZM655.157 280.721C656.871 280.721 657.943 282.092 657.943 284.263C657.943 286.451 656.88 287.805 655.157 287.805C653.426 287.805 652.389 286.478 652.389 284.263C652.389 282.057 653.435 280.721 655.157 280.721ZM671.329 289.167C674.027 289.167 675.697 287.304 675.697 284.263C675.697 281.213 674.027 279.358 671.329 279.358C668.631 279.358 666.961 281.213 666.961 284.263C666.961 287.304 668.631 289.167 671.329 289.167ZM671.329 287.805C669.536 287.805 668.525 286.504 668.525 284.263C668.525 282.013 669.536 280.721 671.329 280.721C673.122 280.721 674.133 282.013 674.133 284.263C674.133 286.504 673.122 287.805 671.329 287.805ZM678.07 289H679.582V283.393C679.582 281.731 680.558 280.721 682.069 280.721C683.581 280.721 684.302 281.529 684.302 283.234V289H685.813V282.865C685.813 280.615 684.627 279.358 682.5 279.358C681.05 279.358 680.127 279.974 679.652 281.02H679.512V279.525H678.07V289ZM688.617 289H690.129V279.525H688.617V289ZM689.373 277.601C689.953 277.601 690.428 277.126 690.428 276.546C690.428 275.966 689.953 275.491 689.373 275.491C688.793 275.491 688.318 275.966 688.318 276.546C688.318 277.126 688.793 277.601 689.373 277.601ZM696.905 289.167C699.603 289.167 701.273 287.304 701.273 284.263C701.273 281.213 699.603 279.358 696.905 279.358C694.207 279.358 692.537 281.213 692.537 284.263C692.537 287.304 694.207 289.167 696.905 289.167ZM696.905 287.805C695.112 287.805 694.102 286.504 694.102 284.263C694.102 282.013 695.112 280.721 696.905 280.721C698.698 280.721 699.709 282.013 699.709 284.263C699.709 286.504 698.698 287.805 696.905 287.805ZM703.646 289H705.158V283.393C705.158 281.731 706.134 280.721 707.645 280.721C709.157 280.721 709.878 281.529 709.878 283.234V289H711.39V282.865C711.39 280.615 710.203 279.358 708.076 279.358C706.626 279.358 705.703 279.974 705.228 281.02H705.088V279.525H703.646V289ZM713.938 282.118C713.938 283.489 714.747 284.254 716.522 284.685L718.148 285.08C719.159 285.326 719.651 285.766 719.651 286.416C719.651 287.286 718.737 287.893 717.463 287.893C716.25 287.893 715.494 287.383 715.239 286.583H713.684C713.851 288.156 715.301 289.167 717.41 289.167C719.563 289.167 721.207 287.998 721.207 286.302C721.207 284.939 720.346 284.166 718.561 283.735L717.103 283.384C715.986 283.111 715.459 282.707 715.459 282.057C715.459 281.213 716.338 280.642 717.463 280.642C718.605 280.642 719.344 281.143 719.546 281.898H721.04C720.838 280.343 719.458 279.358 717.472 279.358C715.459 279.358 713.938 280.545 713.938 282.118Z" fill="#816042"/>
<path d="M642.861 207H644.522L639.847 194.317H638.282L633.606 207H635.268L636.542 203.37H641.587L642.861 207ZM638.994 196.365H639.135L641.121 202.025H637.008L638.994 196.365ZM646.553 207H648.064V201.129C648.064 199.793 649.022 198.721 650.262 198.721C651.457 198.721 652.239 199.441 652.239 200.566V207H653.751V200.909C653.751 199.705 654.63 198.721 655.948 198.721C657.284 198.721 657.943 199.406 657.943 200.804V207H659.455V200.452C659.455 198.466 658.374 197.358 656.44 197.358C655.131 197.358 654.05 198.018 653.54 199.02H653.399C652.96 198.035 652.063 197.358 650.78 197.358C649.515 197.358 648.565 197.965 648.135 199.02H647.994V197.525H646.553V207ZM665.994 198.694C667.497 198.694 668.499 199.802 668.534 201.48H663.313C663.428 199.802 664.482 198.694 665.994 198.694ZM668.49 204.548C668.095 205.383 667.269 205.831 666.047 205.831C664.438 205.831 663.393 204.645 663.313 202.772V202.702H670.125V202.122C670.125 199.178 668.569 197.358 666.012 197.358C663.41 197.358 661.74 199.292 661.74 202.271C661.74 205.269 663.384 207.167 666.012 207.167C668.086 207.167 669.545 206.174 670.002 204.548H668.49ZM672.498 207H674.01V201.129C674.01 199.793 675.056 198.826 676.497 198.826C676.796 198.826 677.341 198.879 677.464 198.914V197.402C677.27 197.376 676.954 197.358 676.708 197.358C675.451 197.358 674.361 198.009 674.08 198.932H673.939V197.525H672.498V207ZM679.389 207H680.9V197.525H679.389V207ZM680.145 195.601C680.725 195.601 681.199 195.126 681.199 194.546C681.199 193.966 680.725 193.491 680.145 193.491C679.564 193.491 679.09 193.966 679.09 194.546C679.09 195.126 679.564 195.601 680.145 195.601ZM691.623 200.426C691.359 198.738 689.953 197.358 687.65 197.358C684.996 197.358 683.309 199.274 683.309 202.228C683.309 205.242 685.005 207.167 687.659 207.167C689.936 207.167 691.351 205.884 691.623 204.144H690.094C689.812 205.216 688.925 205.805 687.65 205.805C685.963 205.805 684.873 204.416 684.873 202.228C684.873 200.083 685.945 198.721 687.65 198.721C689.013 198.721 689.848 199.485 690.094 200.426H691.623ZM696.773 205.84C695.675 205.84 694.857 205.277 694.857 204.311C694.857 203.361 695.49 202.86 696.932 202.764L699.48 202.597V203.467C699.48 204.82 698.329 205.84 696.773 205.84ZM696.492 207.167C697.758 207.167 698.795 206.613 699.41 205.603H699.551V207H700.992V200.514C700.992 198.545 699.7 197.358 697.389 197.358C695.367 197.358 693.873 198.36 693.671 199.881H695.2C695.411 199.134 696.202 198.703 697.336 198.703C698.751 198.703 699.48 199.345 699.48 200.514V201.375L696.747 201.542C694.541 201.674 693.293 202.649 693.293 204.346C693.293 206.077 694.655 207.167 696.492 207.167ZM703.787 207H705.299V201.393C705.299 199.731 706.274 198.721 707.786 198.721C709.298 198.721 710.019 199.529 710.019 201.234V207H711.53V200.865C711.53 198.615 710.344 197.358 708.217 197.358C706.767 197.358 705.844 197.974 705.369 199.02H705.228V197.525H703.787V207ZM727.219 200.426C726.955 198.738 725.549 197.358 723.246 197.358C720.592 197.358 718.904 199.274 718.904 202.228C718.904 205.242 720.601 207.167 723.255 207.167C725.531 207.167 726.946 205.884 727.219 204.144H725.689C725.408 205.216 724.52 205.805 723.246 205.805C721.559 205.805 720.469 204.416 720.469 202.228C720.469 200.083 721.541 198.721 723.246 198.721C724.608 198.721 725.443 199.485 725.689 200.426H727.219ZM729.539 207H731.051V201.393C731.051 199.793 731.982 198.721 733.679 198.721C735.111 198.721 735.867 199.556 735.867 201.234V207H737.379V200.865C737.379 198.642 736.113 197.358 734.109 197.358C732.659 197.358 731.666 197.974 731.191 199.02H731.051V193.764H729.539V207ZM743.918 198.694C745.421 198.694 746.423 199.802 746.458 201.48H741.237C741.352 199.802 742.406 198.694 743.918 198.694ZM746.414 204.548C746.019 205.383 745.192 205.831 743.971 205.831C742.362 205.831 741.316 204.645 741.237 202.772V202.702H748.049V202.122C748.049 199.178 746.493 197.358 743.936 197.358C741.334 197.358 739.664 199.292 739.664 202.271C739.664 205.269 741.308 207.167 743.936 207.167C746.01 207.167 747.469 206.174 747.926 204.548H746.414ZM754.201 198.694C755.704 198.694 756.706 199.802 756.741 201.48H751.52C751.635 199.802 752.689 198.694 754.201 198.694ZM756.697 204.548C756.302 205.383 755.476 205.831 754.254 205.831C752.645 205.831 751.6 204.645 751.52 202.772V202.702H758.332V202.122C758.332 199.178 756.776 197.358 754.219 197.358C751.617 197.358 749.947 199.292 749.947 202.271C749.947 205.269 751.591 207.167 754.219 207.167C756.293 207.167 757.752 206.174 758.209 204.548H756.697ZM760.485 200.118C760.485 201.489 761.294 202.254 763.069 202.685L764.695 203.08C765.706 203.326 766.198 203.766 766.198 204.416C766.198 205.286 765.284 205.893 764.01 205.893C762.797 205.893 762.041 205.383 761.786 204.583H760.23C760.397 206.156 761.848 207.167 763.957 207.167C766.11 207.167 767.754 205.998 767.754 204.302C767.754 202.939 766.893 202.166 765.108 201.735L763.649 201.384C762.533 201.111 762.006 200.707 762.006 200.057C762.006 199.213 762.885 198.642 764.01 198.642C765.152 198.642 765.891 199.143 766.093 199.898H767.587C767.385 198.343 766.005 197.358 764.019 197.358C762.006 197.358 760.485 198.545 760.485 200.118ZM773.906 198.694C775.409 198.694 776.411 199.802 776.446 201.48H771.226C771.34 199.802 772.395 198.694 773.906 198.694ZM776.402 204.548C776.007 205.383 775.181 205.831 773.959 205.831C772.351 205.831 771.305 204.645 771.226 202.772V202.702H778.037V202.122C778.037 199.178 776.481 197.358 773.924 197.358C771.322 197.358 769.652 199.292 769.652 202.271C769.652 205.269 771.296 207.167 773.924 207.167C775.998 207.167 777.457 206.174 777.914 204.548H776.402Z" fill="#816042"/>
<path d="M196.81 174.167C198.119 174.167 199.244 173.543 199.842 172.488H199.982V174H201.424V160.764H199.912V166.02H199.78C199.244 164.982 198.128 164.358 196.81 164.358C194.401 164.358 192.828 166.292 192.828 169.263C192.828 172.242 194.384 174.167 196.81 174.167ZM197.161 165.721C198.875 165.721 199.947 167.092 199.947 169.263C199.947 171.451 198.884 172.805 197.161 172.805C195.43 172.805 194.393 171.478 194.393 169.263C194.393 167.057 195.438 165.721 197.161 165.721ZM204.395 174H205.906V164.525H204.395V174ZM205.15 162.601C205.73 162.601 206.205 162.126 206.205 161.546C206.205 160.966 205.73 160.491 205.15 160.491C204.57 160.491 204.096 160.966 204.096 161.546C204.096 162.126 204.57 162.601 205.15 162.601ZM208.877 174H210.389V160.764H208.877V174ZM213.412 174H214.924V160.764H213.412V174ZM227.554 164.358C226.262 164.358 225.128 165.018 224.521 166.107H224.381V164.525H222.939V177.164H224.451V172.576H224.592C225.11 173.578 226.2 174.167 227.554 174.167C229.962 174.167 231.535 172.225 231.535 169.263C231.535 166.283 229.971 164.358 227.554 164.358ZM227.193 172.805C225.488 172.805 224.407 171.434 224.407 169.263C224.407 167.083 225.488 165.721 227.202 165.721C228.934 165.721 229.971 167.048 229.971 169.263C229.971 171.478 228.934 172.805 227.193 172.805ZM233.943 174H235.455V164.525H233.943V174ZM234.699 162.601C235.279 162.601 235.754 162.126 235.754 161.546C235.754 160.966 235.279 160.491 234.699 160.491C234.119 160.491 233.645 160.966 233.645 161.546C233.645 162.126 234.119 162.601 234.699 162.601ZM246.178 167.426C245.914 165.738 244.508 164.358 242.205 164.358C239.551 164.358 237.863 166.274 237.863 169.228C237.863 172.242 239.56 174.167 242.214 174.167C244.49 174.167 245.905 172.884 246.178 171.144H244.648C244.367 172.216 243.479 172.805 242.205 172.805C240.518 172.805 239.428 171.416 239.428 169.228C239.428 167.083 240.5 165.721 242.205 165.721C243.567 165.721 244.402 166.485 244.648 167.426H246.178ZM250.15 168.665H250.01V160.764H248.498V174H250.01V170.405L250.915 169.562L254.466 174H256.391L252.04 168.586L256.118 164.525H254.264L250.15 168.665ZM258.271 174H259.783V160.764H258.271V174ZM266.498 165.694C268.001 165.694 269.003 166.802 269.038 168.48H263.817C263.932 166.802 264.986 165.694 266.498 165.694ZM268.994 171.548C268.599 172.383 267.772 172.831 266.551 172.831C264.942 172.831 263.896 171.645 263.817 169.772V169.702H270.629V169.122C270.629 166.178 269.073 164.358 266.516 164.358C263.914 164.358 262.244 166.292 262.244 169.271C262.244 172.269 263.888 174.167 266.516 174.167C268.59 174.167 270.049 173.174 270.506 171.548H268.994ZM272.782 167.118C272.782 168.489 273.591 169.254 275.366 169.685L276.992 170.08C278.003 170.326 278.495 170.766 278.495 171.416C278.495 172.286 277.581 172.893 276.307 172.893C275.094 172.893 274.338 172.383 274.083 171.583H272.527C272.694 173.156 274.145 174.167 276.254 174.167C278.407 174.167 280.051 172.998 280.051 171.302C280.051 169.939 279.189 169.166 277.405 168.735L275.946 168.384C274.83 168.111 274.303 167.707 274.303 167.057C274.303 166.213 275.182 165.642 276.307 165.642C277.449 165.642 278.188 166.143 278.39 166.898H279.884C279.682 165.343 278.302 164.358 276.315 164.358C274.303 164.358 272.782 165.545 272.782 167.118Z" fill="#816042"/>
<path d="M150.342 224.299C153.031 224.299 154.912 222.778 154.912 220.607C154.912 218.955 153.866 217.672 152.275 217.373V217.232C153.585 216.872 154.394 215.791 154.394 214.402C154.394 212.425 152.715 211.019 150.342 211.019C147.969 211.019 146.29 212.425 146.29 214.402C146.29 215.782 147.116 216.881 148.408 217.232V217.373C146.817 217.672 145.771 218.955 145.771 220.607C145.771 222.778 147.652 224.299 150.342 224.299ZM150.342 222.945C148.584 222.945 147.371 221.943 147.371 220.493C147.371 219.043 148.584 218.041 150.342 218.041C152.1 218.041 153.312 219.043 153.312 220.493C153.312 221.943 152.1 222.945 150.342 222.945ZM150.342 216.705C148.848 216.705 147.846 215.844 147.846 214.552C147.846 213.242 148.839 212.372 150.342 212.372C151.845 212.372 152.838 213.242 152.838 214.552C152.838 215.844 151.836 216.705 150.342 216.705ZM161.768 224.299C164.615 224.299 166.25 221.891 166.25 217.681C166.25 213.479 164.589 211.019 161.768 211.019C158.929 211.019 157.268 213.471 157.268 217.654C157.268 221.873 158.911 224.299 161.768 224.299ZM161.768 222.919C159.896 222.919 158.858 221.047 158.858 217.654C158.858 214.306 159.913 212.407 161.768 212.407C163.622 212.407 164.659 214.288 164.659 217.654C164.659 221.056 163.64 222.919 161.768 222.919ZM173.536 214.147C173.536 212.354 172.42 211.098 170.838 211.098C169.256 211.098 168.131 212.363 168.131 214.147C168.131 215.94 169.256 217.206 170.838 217.206C172.42 217.206 173.536 215.94 173.536 214.147ZM170.838 216.081C170.056 216.081 169.537 215.316 169.537 214.147C169.537 212.979 170.047 212.223 170.838 212.223C171.629 212.223 172.13 212.961 172.13 214.147C172.13 215.308 171.611 216.081 170.838 216.081ZM170.697 224L175.048 218.05L179.97 211.317H178.37L173.923 217.391L169.08 224H170.697ZM180.875 221.161C180.875 219.368 179.759 218.111 178.177 218.111C176.595 218.111 175.47 219.377 175.47 221.161C175.47 222.954 176.595 224.22 178.177 224.22C179.759 224.22 180.875 222.954 180.875 221.161ZM178.177 223.095C177.395 223.095 176.876 222.33 176.876 221.161C176.876 219.992 177.386 219.236 178.177 219.236C178.968 219.236 179.469 219.975 179.469 221.161C179.469 222.321 178.95 223.095 178.177 223.095ZM192.793 224.167C195.192 224.167 196.766 222.225 196.766 219.263C196.766 216.283 195.201 214.358 192.793 214.358C191.492 214.358 190.341 215 189.822 216.02H189.682V210.764H188.17V224H189.611V222.488H189.752C190.35 223.543 191.475 224.167 192.793 224.167ZM192.441 215.721C194.173 215.721 195.201 217.048 195.201 219.263C195.201 221.478 194.173 222.805 192.441 222.805C190.719 222.805 189.646 221.451 189.646 219.263C189.646 217.074 190.719 215.721 192.441 215.721ZM202.918 215.694C204.421 215.694 205.423 216.802 205.458 218.48H200.237C200.352 216.802 201.406 215.694 202.918 215.694ZM205.414 221.548C205.019 222.383 204.192 222.831 202.971 222.831C201.362 222.831 200.316 221.645 200.237 219.772V219.702H207.049V219.122C207.049 216.178 205.493 214.358 202.936 214.358C200.334 214.358 198.664 216.292 198.664 219.271C198.664 222.269 200.308 224.167 202.936 224.167C205.01 224.167 206.469 223.174 206.926 221.548H205.414ZM213.201 215.694C214.704 215.694 215.706 216.802 215.741 218.48H210.521C210.635 216.802 211.689 215.694 213.201 215.694ZM215.697 221.548C215.302 222.383 214.476 222.831 213.254 222.831C211.646 222.831 210.6 221.645 210.521 219.772V219.702H217.332V219.122C217.332 216.178 215.776 214.358 213.219 214.358C210.617 214.358 208.947 216.292 208.947 219.271C208.947 222.269 210.591 224.167 213.219 224.167C215.293 224.167 216.752 223.174 217.209 221.548H215.697ZM220.338 224H221.85V215.791H224.021V214.525H221.85V213.515C221.85 212.478 222.307 211.95 223.396 211.95C223.669 211.95 223.924 211.959 224.108 211.994V210.764C223.792 210.702 223.458 210.676 223.089 210.676C221.287 210.676 220.338 211.581 220.338 213.471V214.525H218.765V215.791H220.338V224ZM239.146 217.426C238.883 215.738 237.477 214.358 235.174 214.358C232.52 214.358 230.832 216.274 230.832 219.228C230.832 222.242 232.528 224.167 235.183 224.167C237.459 224.167 238.874 222.884 239.146 221.144H237.617C237.336 222.216 236.448 222.805 235.174 222.805C233.486 222.805 232.396 221.416 232.396 219.228C232.396 217.083 233.469 215.721 235.174 215.721C236.536 215.721 237.371 216.485 237.617 217.426H239.146ZM241.467 224H242.979V218.393C242.979 216.793 243.91 215.721 245.606 215.721C247.039 215.721 247.795 216.556 247.795 218.234V224H249.307V217.865C249.307 215.642 248.041 214.358 246.037 214.358C244.587 214.358 243.594 214.974 243.119 216.02H242.979V210.764H241.467V224ZM259.73 214.525H258.219V220.133C258.219 221.794 257.305 222.787 255.635 222.787C254.123 222.787 253.49 221.996 253.49 220.291V214.525H251.979V220.66C251.979 222.901 253.086 224.167 255.213 224.167C256.663 224.167 257.674 223.569 258.148 222.515H258.289V224H259.73V214.525ZM270.418 217.426C270.154 215.738 268.748 214.358 266.445 214.358C263.791 214.358 262.104 216.274 262.104 219.228C262.104 222.242 263.8 224.167 266.454 224.167C268.73 224.167 270.146 222.884 270.418 221.144H268.889C268.607 222.216 267.72 222.805 266.445 222.805C264.758 222.805 263.668 221.416 263.668 219.228C263.668 217.083 264.74 215.721 266.445 215.721C267.808 215.721 268.643 216.485 268.889 217.426H270.418ZM274.391 218.665H274.25V210.764H272.738V224H274.25V220.405L275.155 219.562L278.706 224H280.631L276.28 218.586L280.358 214.525H278.504L274.391 218.665ZM134.012 235.886V235.895H135.541V235.886C135.541 234.392 136.543 233.398 138.028 233.398C139.426 233.398 140.507 234.374 140.507 235.64C140.507 236.659 140.111 237.345 138.477 239.12L134.091 243.91V245H142.3V243.576H136.358V243.436L139.408 240.157C141.491 237.925 142.089 236.896 142.089 235.578C142.089 233.565 140.349 232.019 138.072 232.019C135.717 232.019 134.012 233.636 134.012 235.886ZM149.234 245.299C152.082 245.299 153.717 242.891 153.717 238.681C153.717 234.479 152.056 232.019 149.234 232.019C146.396 232.019 144.734 234.471 144.734 238.654C144.734 242.873 146.378 245.299 149.234 245.299ZM149.234 243.919C147.362 243.919 146.325 242.047 146.325 238.654C146.325 235.306 147.38 233.407 149.234 233.407C151.089 233.407 152.126 235.288 152.126 238.654C152.126 242.056 151.106 243.919 149.234 243.919ZM161.003 235.147C161.003 233.354 159.887 232.098 158.305 232.098C156.723 232.098 155.598 233.363 155.598 235.147C155.598 236.94 156.723 238.206 158.305 238.206C159.887 238.206 161.003 236.94 161.003 235.147ZM158.305 237.081C157.522 237.081 157.004 236.316 157.004 235.147C157.004 233.979 157.514 233.223 158.305 233.223C159.096 233.223 159.597 233.961 159.597 235.147C159.597 236.308 159.078 237.081 158.305 237.081ZM158.164 245L162.515 239.05L167.437 232.317H165.837L161.39 238.391L156.547 245H158.164ZM168.342 242.161C168.342 240.368 167.226 239.111 165.644 239.111C164.062 239.111 162.937 240.377 162.937 242.161C162.937 243.954 164.062 245.22 165.644 245.22C167.226 245.22 168.342 243.954 168.342 242.161ZM165.644 244.095C164.861 244.095 164.343 243.33 164.343 242.161C164.343 240.992 164.853 240.236 165.644 240.236C166.435 240.236 166.936 240.975 166.936 242.161C166.936 243.321 166.417 244.095 165.644 244.095ZM180.163 235.358C178.871 235.358 177.737 236.018 177.131 237.107H176.99V235.525H175.549V248.164H177.061V243.576H177.201C177.72 244.578 178.81 245.167 180.163 245.167C182.571 245.167 184.145 243.225 184.145 240.263C184.145 237.283 182.58 235.358 180.163 235.358ZM179.803 243.805C178.098 243.805 177.017 242.434 177.017 240.263C177.017 238.083 178.098 236.721 179.812 236.721C181.543 236.721 182.58 238.048 182.58 240.263C182.58 242.478 181.543 243.805 179.803 243.805ZM190.411 245.167C193.109 245.167 194.779 243.304 194.779 240.263C194.779 237.213 193.109 235.358 190.411 235.358C187.713 235.358 186.043 237.213 186.043 240.263C186.043 243.304 187.713 245.167 190.411 245.167ZM190.411 243.805C188.618 243.805 187.607 242.504 187.607 240.263C187.607 238.013 188.618 236.721 190.411 236.721C192.204 236.721 193.215 238.013 193.215 240.263C193.215 242.504 192.204 243.805 190.411 243.805ZM197.152 245H198.664V239.129C198.664 237.793 199.71 236.826 201.151 236.826C201.45 236.826 201.995 236.879 202.118 236.914V235.402C201.925 235.376 201.608 235.358 201.362 235.358C200.105 235.358 199.016 236.009 198.734 236.932H198.594V235.525H197.152V245ZM205.748 239.665H205.607V231.764H204.096V245H205.607V241.405L206.513 240.562L210.063 245H211.988L207.638 239.586L211.716 235.525H209.861L205.748 239.665ZM219.494 245H221.006V236.791H223.177V235.525H221.006V234.515C221.006 233.478 221.463 232.95 222.553 232.95C222.825 232.95 223.08 232.959 223.265 232.994V231.764C222.948 231.702 222.614 231.676 222.245 231.676C220.443 231.676 219.494 232.581 219.494 234.471V235.525H217.921V236.791H219.494V245ZM228.037 243.84C226.938 243.84 226.121 243.277 226.121 242.311C226.121 241.361 226.754 240.86 228.195 240.764L230.744 240.597V241.467C230.744 242.82 229.593 243.84 228.037 243.84ZM227.756 245.167C229.021 245.167 230.059 244.613 230.674 243.603H230.814V245H232.256V238.514C232.256 236.545 230.964 235.358 228.652 235.358C226.631 235.358 225.137 236.36 224.935 237.881H226.464C226.675 237.134 227.466 236.703 228.6 236.703C230.015 236.703 230.744 237.345 230.744 238.514V239.375L228.011 239.542C225.805 239.674 224.557 240.649 224.557 242.346C224.557 244.077 225.919 245.167 227.756 245.167ZM235.684 233.073V235.525H234.154V236.791H235.684V242.539C235.684 244.35 236.466 245.07 238.417 245.07C238.716 245.07 239.006 245.035 239.305 244.982V243.708C239.023 243.734 238.874 243.743 238.602 243.743C237.617 243.743 237.195 243.269 237.195 242.152V236.791H239.305V235.525H237.195V233.073H235.684ZM246.301 245.167C248.7 245.167 250.273 243.225 250.273 240.263C250.273 237.283 248.709 235.358 246.301 235.358C245 235.358 243.849 236 243.33 237.02H243.189V231.764H241.678V245H243.119V243.488H243.26C243.857 244.543 244.982 245.167 246.301 245.167ZM245.949 236.721C247.681 236.721 248.709 238.048 248.709 240.263C248.709 242.478 247.681 243.805 245.949 243.805C244.227 243.805 243.154 242.451 243.154 240.263C243.154 238.074 244.227 236.721 245.949 236.721ZM255.564 243.84C254.466 243.84 253.648 243.277 253.648 242.311C253.648 241.361 254.281 240.86 255.723 240.764L258.271 240.597V241.467C258.271 242.82 257.12 243.84 255.564 243.84ZM255.283 245.167C256.549 245.167 257.586 244.613 258.201 243.603H258.342V245H259.783V238.514C259.783 236.545 258.491 235.358 256.18 235.358C254.158 235.358 252.664 236.36 252.462 237.881H253.991C254.202 237.134 254.993 236.703 256.127 236.703C257.542 236.703 258.271 237.345 258.271 238.514V239.375L255.538 239.542C253.332 239.674 252.084 240.649 252.084 242.346C252.084 244.077 253.446 245.167 255.283 245.167ZM270.418 238.426C270.154 236.738 268.748 235.358 266.445 235.358C263.791 235.358 262.104 237.274 262.104 240.228C262.104 243.242 263.8 245.167 266.454 245.167C268.73 245.167 270.146 243.884 270.418 242.144H268.889C268.607 243.216 267.72 243.805 266.445 243.805C264.758 243.805 263.668 242.416 263.668 240.228C263.668 238.083 264.74 236.721 266.445 236.721C267.808 236.721 268.643 237.485 268.889 238.426H270.418ZM274.391 239.665H274.25V231.764H272.738V245H274.25V241.405L275.155 240.562L278.706 245H280.631L276.28 239.586L280.358 235.525H278.504L274.391 239.665Z" fill="#816042"/>
<path d="M154.93 342H156.441V332.525H154.93V342ZM155.686 330.601C156.266 330.601 156.74 330.126 156.74 329.546C156.74 328.966 156.266 328.491 155.686 328.491C155.105 328.491 154.631 328.966 154.631 329.546C154.631 330.126 155.105 330.601 155.686 330.601ZM167.164 335.426C166.9 333.738 165.494 332.358 163.191 332.358C160.537 332.358 158.85 334.274 158.85 337.228C158.85 340.242 160.546 342.167 163.2 342.167C165.477 342.167 166.892 340.884 167.164 339.144H165.635C165.354 340.216 164.466 340.805 163.191 340.805C161.504 340.805 160.414 339.416 160.414 337.228C160.414 335.083 161.486 333.721 163.191 333.721C164.554 333.721 165.389 334.485 165.635 335.426H167.164ZM173.176 333.694C174.679 333.694 175.681 334.802 175.716 336.48H170.495C170.609 334.802 171.664 333.694 173.176 333.694ZM175.672 339.548C175.276 340.383 174.45 340.831 173.229 340.831C171.62 340.831 170.574 339.645 170.495 337.772V337.702H177.307V337.122C177.307 334.178 175.751 332.358 173.193 332.358C170.592 332.358 168.922 334.292 168.922 337.271C168.922 340.269 170.565 342.167 173.193 342.167C175.268 342.167 176.727 341.174 177.184 339.548H175.672ZM184.391 342.167C186.79 342.167 188.363 340.225 188.363 337.263C188.363 334.283 186.799 332.358 184.391 332.358C183.09 332.358 181.938 333 181.42 334.02H181.279V328.764H179.768V342H181.209V340.488H181.35C181.947 341.543 183.072 342.167 184.391 342.167ZM184.039 333.721C185.771 333.721 186.799 335.048 186.799 337.263C186.799 339.478 185.771 340.805 184.039 340.805C182.316 340.805 181.244 339.451 181.244 337.263C181.244 335.074 182.316 333.721 184.039 333.721ZM194.516 333.694C196.019 333.694 197.021 334.802 197.056 336.48H191.835C191.949 334.802 193.004 333.694 194.516 333.694ZM197.012 339.548C196.616 340.383 195.79 340.831 194.568 340.831C192.96 340.831 191.914 339.645 191.835 337.772V337.702H198.646V337.122C198.646 334.178 197.091 332.358 194.533 332.358C191.932 332.358 190.262 334.292 190.262 337.271C190.262 340.269 191.905 342.167 194.533 342.167C196.607 342.167 198.066 341.174 198.523 339.548H197.012ZM201.02 342H202.531V336.129C202.531 334.793 203.577 333.826 205.019 333.826C205.317 333.826 205.862 333.879 205.985 333.914V332.402C205.792 332.376 205.476 332.358 205.229 332.358C203.973 332.358 202.883 333.009 202.602 333.932H202.461V332.525H201.02V342ZM211.443 340.523C209.686 340.523 208.701 339.188 208.701 337.122C208.701 335.057 209.686 333.721 211.443 333.721C213.192 333.721 214.256 335.057 214.256 337.122C214.256 339.188 213.201 340.523 211.443 340.523ZM211.514 345.639C214.098 345.639 215.732 344.285 215.732 342.167V332.525H214.291V334.028H214.15C213.605 333.009 212.437 332.358 211.109 332.358C208.675 332.358 207.137 334.283 207.137 337.122C207.137 339.961 208.657 341.859 211.109 341.859C212.41 341.859 213.482 341.271 214.08 340.225H214.221V342.088C214.221 343.485 213.21 344.32 211.514 344.32C210.151 344.32 209.308 343.819 209.141 343.046H207.541C207.77 344.61 209.229 345.639 211.514 345.639ZM223.748 342H225.26V328.764H223.748V342ZM231.975 333.694C233.478 333.694 234.479 334.802 234.515 336.48H229.294C229.408 334.802 230.463 333.694 231.975 333.694ZM234.471 339.548C234.075 340.383 233.249 340.831 232.027 340.831C230.419 340.831 229.373 339.645 229.294 337.772V337.702H236.105V337.122C236.105 334.178 234.55 332.358 231.992 332.358C229.391 332.358 227.721 334.292 227.721 337.271C227.721 340.269 229.364 342.167 231.992 342.167C234.066 342.167 235.525 341.174 235.982 339.548H234.471ZM239.111 330.073V332.525H237.582V333.791H239.111V339.539C239.111 341.35 239.894 342.07 241.845 342.07C242.144 342.07 242.434 342.035 242.732 341.982V340.708C242.451 340.734 242.302 340.743 242.029 340.743C241.045 340.743 240.623 340.269 240.623 339.152V333.791H242.732V332.525H240.623V330.073H239.111ZM245.65 330.073V332.525H244.121V333.791H245.65V339.539C245.65 341.35 246.433 342.07 248.384 342.07C248.683 342.07 248.973 342.035 249.271 341.982V340.708C248.99 340.734 248.841 340.743 248.568 340.743C247.584 340.743 247.162 340.269 247.162 339.152V333.791H249.271V332.525H247.162V330.073H245.65ZM259.221 332.525H257.709V338.133C257.709 339.794 256.795 340.787 255.125 340.787C253.613 340.787 252.98 339.996 252.98 338.291V332.525H251.469V338.66C251.469 340.901 252.576 342.167 254.703 342.167C256.153 342.167 257.164 341.569 257.639 340.515H257.779V342H259.221V332.525ZM269.908 335.426C269.645 333.738 268.238 332.358 265.936 332.358C263.281 332.358 261.594 334.274 261.594 337.228C261.594 340.242 263.29 342.167 265.944 342.167C268.221 342.167 269.636 340.884 269.908 339.144H268.379C268.098 340.216 267.21 340.805 265.936 340.805C264.248 340.805 263.158 339.416 263.158 337.228C263.158 335.083 264.23 333.721 265.936 333.721C267.298 333.721 268.133 334.485 268.379 335.426H269.908ZM275.92 333.694C277.423 333.694 278.425 334.802 278.46 336.48H273.239C273.354 334.802 274.408 333.694 275.92 333.694ZM278.416 339.548C278.021 340.383 277.194 340.831 275.973 340.831C274.364 340.831 273.318 339.645 273.239 337.772V337.702H280.051V337.122C280.051 334.178 278.495 332.358 275.938 332.358C273.336 332.358 271.666 334.292 271.666 337.271C271.666 340.269 273.31 342.167 275.938 342.167C278.012 342.167 279.471 341.174 279.928 339.548H278.416Z" fill="#816042"/>
<path d="M296 111C295.448 111 295 111.448 295 112C295 112.552 295.448 113 296 113L296 111ZM366 112L356 106.226L356 117.773L366 112ZM296 113L357 113L357 111L296 111L296 113Z" fill="#ECAB05"/>
<path d="M618 147C618.552 147 619 147.448 619 148C619 148.552 618.552 149 618 149L618 147ZM548 148L558 142.226L558 153.773L548 148ZM618 149L557 149L557 147L618 147L618 149Z" fill="#FD9B42"/>
<path d="M618 283C618.552 283 619 283.448 619 284C619 284.552 618.552 285 618 285L618 283ZM548 284L558 278.226L558 289.773L548 284ZM618 285L557 285L557 283L618 283L618 285Z" fill="#CC06A1"/>
<path d="M618 201C618.552 201 619 201.448 619 202C619 202.552 618.552 203 618 203L618 201ZM548 202L558 196.226L558 207.773L548 202ZM618 203L557 203L557 201L618 201L618 203Z" fill="#F0CB08"/>
<path d="M366 393L356 387.226L356 398.773L366 393ZM174 113C174.552 113 175 112.552 175 112C175 111.448 174.552 111 174 111L174 113ZM81 394L357 394L357 392L81 392L81 394ZM80 391L80 114L78 114L78 391L80 391ZM81 113L174 113L174 111L81 111L81 113ZM80 114C80 113.448 80.4477 113 81 113L81 111C79.3431 111 78 112.343 78 114L80 114ZM81 392C80.4477 392 80 391.552 80 391L78 391C78 392.657 79.3431 394 81 394L81 392Z" fill="#ECAB05"/>
<path d="M366 308L356 302.226L356 313.773L366 308ZM117 231C117.552 231 118 230.552 118 230C118 229.448 117.552 229 117 229L117 231ZM111 309L357 309L357 307L111 307L111 309ZM110 306L110 232L108 232L108 306L110 306ZM111 231L117 231L117 229L111 229L111 231ZM110 232C110 231.448 110.448 231 111 231L111 229C109.343 229 108 230.343 108 232L110 232ZM111 307C110.448 307 110 306.552 110 306L108 306C108 307.657 109.343 309 111 309L111 307Z" fill="#703600"/>
<path d="M548 360L558 354.226L558 365.773L548 360ZM761 149C760.448 149 760 148.552 760 148C760 147.448 760.448 147 761 147L761 149ZM833 361L557 361L557 359L833 359L833 361ZM834 358L834 150L836 150L836 358L834 358ZM833 149L761 149L761 147L833 147L833 149ZM834 150C834 149.448 833.552 149 833 149L833 147C834.657 147 836 148.343 836 150L834 150ZM833 359C833.552 359 834 358.552 834 358L836 358C836 359.657 834.657 361 833 361L833 359Z" fill="#FD9B42"/>
<path d="M548 257L558 251.226L558 262.773L548 257ZM794 203C793.448 203 793 202.552 793 202C793 201.448 793.448 201 794 201L794 203ZM803 258L557 258L557 256L803 256L803 258ZM804 255L804 204L806 204L806 255L804 255ZM803 203L794 203L794 201L803 201L803 203ZM804 204C804 203.448 803.552 203 803 203L803 201C804.657 201 806 202.343 806 204L804 204ZM803 256C803.552 256 804 255.552 804 255L806 255C806 256.657 804.657 258 803 258L803 256Z" fill="#F0CB08"/>
<path d="M296 168C295.448 168 295 168.448 295 169C295 169.552 295.448 170 296 170V168ZM366 169L356 163.226V174.774L366 169ZM296 170H357V168H296V170Z" fill="#62AF17"/>
<path d="M296 229C295.448 229 295 229.448 295 230C295 230.552 295.448 231 296 231V229ZM366 230L356 224.226V235.774L366 230ZM296 231H357V229H296V231Z" fill="#703600"/>
<path d="M296 336C295.448 336 295 336.448 295 337C295 337.552 295.448 338 296 338V336ZM366 337L356 331.226V342.774L366 337ZM296 338H357V336H296V338Z" fill="#67CC01"/>
</svg>
