<svg width="913" height="478" viewBox="0 0 913 478" fill="none" xmlns="http://www.w3.org/2000/svg">
<path d="M708.342 241.84C707.243 241.84 706.426 241.277 706.426 240.311C706.426 239.361 707.059 238.86 708.5 238.764L711.049 238.597V239.467C711.049 240.82 709.897 241.84 708.342 241.84ZM708.061 243.167C709.326 243.167 710.363 242.613 710.979 241.603H711.119V243H712.561V236.514C712.561 234.545 711.269 233.358 708.957 233.358C706.936 233.358 705.441 234.36 705.239 235.881H706.769C706.979 235.134 707.771 234.703 708.904 234.703C710.319 234.703 711.049 235.345 711.049 236.514V237.375L708.315 237.542C706.109 237.674 704.861 238.649 704.861 240.346C704.861 242.077 706.224 243.167 708.061 243.167ZM720.436 243H721.947V237.129C721.947 235.793 722.905 234.721 724.145 234.721C725.34 234.721 726.122 235.441 726.122 236.566V243H727.634V236.909C727.634 235.705 728.513 234.721 729.831 234.721C731.167 234.721 731.826 235.406 731.826 236.804V243H733.338V236.452C733.338 234.466 732.257 233.358 730.323 233.358C729.014 233.358 727.933 234.018 727.423 235.02H727.282C726.843 234.035 725.946 233.358 724.663 233.358C723.397 233.358 722.448 233.965 722.018 235.02H721.877V233.525H720.436V243ZM739.877 234.694C741.38 234.694 742.382 235.802 742.417 237.48H737.196C737.311 235.802 738.365 234.694 739.877 234.694ZM742.373 240.548C741.978 241.383 741.151 241.831 739.93 241.831C738.321 241.831 737.275 240.645 737.196 238.772V238.702H744.008V238.122C744.008 235.178 742.452 233.358 739.895 233.358C737.293 233.358 735.623 235.292 735.623 238.271C735.623 241.269 737.267 243.167 739.895 243.167C741.969 243.167 743.428 242.174 743.885 240.548H742.373ZM749.299 241.84C748.2 241.84 747.383 241.277 747.383 240.311C747.383 239.361 748.016 238.86 749.457 238.764L752.006 238.597V239.467C752.006 240.82 750.854 241.84 749.299 241.84ZM749.018 243.167C750.283 243.167 751.32 242.613 751.936 241.603H752.076V243H753.518V236.514C753.518 234.545 752.226 233.358 749.914 233.358C747.893 233.358 746.398 234.36 746.196 235.881H747.726C747.937 235.134 748.728 234.703 749.861 234.703C751.276 234.703 752.006 235.345 752.006 236.514V237.375L749.272 237.542C747.066 237.674 745.818 238.649 745.818 240.346C745.818 242.077 747.181 243.167 749.018 243.167ZM756.945 231.073V233.525H755.416V234.791H756.945V240.539C756.945 242.35 757.728 243.07 759.679 243.07C759.978 243.07 760.268 243.035 760.566 242.982V241.708C760.285 241.734 760.136 241.743 759.863 241.743C758.879 241.743 758.457 241.269 758.457 240.152V234.791H760.566V233.525H758.457V231.073H756.945ZM767.562 243.167C769.962 243.167 771.535 241.225 771.535 238.263C771.535 235.283 769.971 233.358 767.562 233.358C766.262 233.358 765.11 234 764.592 235.02H764.451V229.764H762.939V243H764.381V241.488H764.521C765.119 242.543 766.244 243.167 767.562 243.167ZM767.211 234.721C768.942 234.721 769.971 236.048 769.971 238.263C769.971 240.478 768.942 241.805 767.211 241.805C765.488 241.805 764.416 240.451 764.416 238.263C764.416 236.074 765.488 234.721 767.211 234.721ZM776.826 241.84C775.728 241.84 774.91 241.277 774.91 240.311C774.91 239.361 775.543 238.86 776.984 238.764L779.533 238.597V239.467C779.533 240.82 778.382 241.84 776.826 241.84ZM776.545 243.167C777.811 243.167 778.848 242.613 779.463 241.603H779.604V243H781.045V236.514C781.045 234.545 779.753 233.358 777.441 233.358C775.42 233.358 773.926 234.36 773.724 235.881H775.253C775.464 235.134 776.255 234.703 777.389 234.703C778.804 234.703 779.533 235.345 779.533 236.514V237.375L776.8 237.542C774.594 237.674 773.346 238.649 773.346 240.346C773.346 242.077 774.708 243.167 776.545 243.167ZM784.473 231.073V233.525H782.943V234.791H784.473V240.539C784.473 242.35 785.255 243.07 787.206 243.07C787.505 243.07 787.795 243.035 788.094 242.982V241.708C787.812 241.734 787.663 241.743 787.391 241.743C786.406 241.743 785.984 241.269 785.984 240.152V234.791H788.094V233.525H785.984V231.073H784.473ZM790.467 243H791.979V237.393C791.979 235.793 792.91 234.721 794.606 234.721C796.039 234.721 796.795 235.556 796.795 237.234V243H798.307V236.865C798.307 234.642 797.041 233.358 795.037 233.358C793.587 233.358 792.594 233.974 792.119 235.02H791.979V229.764H790.467V243Z" fill="#816042"/>
<path d="M689 237C689.552 237 690 237.448 690 238C690 238.552 689.552 239 689 239L689 237ZM619 238L629 232.226L629 243.773L619 238ZM689 239L628 239L628 237L689 237L689 239Z" fill="#703600"/>
</svg>
