<?xml version="1.0" standalone="no"?>
<!DOCTYPE svg PUBLIC "-//W3C//DTD SVG 20010904//EN"
 "http://www.w3.org/TR/2001/REC-SVG-20010904/DTD/svg10.dtd">
<svg version="1.0" xmlns="http://www.w3.org/2000/svg"
 width="512.000000pt" height="512.000000pt" viewBox="0 0 512.000000 512.000000"
 preserveAspectRatio="xMidYMid meet">
<metadata>
Created by potrace 1.14, written by Peter Selinger 2001-2017
</metadata>
<g transform="translate(0.000000,512.000000) scale(0.100000,-0.100000)"
fill="#000000" stroke="none">
<path d="M2280 4890 c-921 -112 -1702 -743 -1986 -1605 -88 -270 -119 -487
-111 -800 8 -363 74 -627 237 -960 337 -686 1002 -1170 1775 -1291 139 -22
453 -29 601 -15 444 45 872 216 1239 495 108 82 290 259 380 370 211 261 387
611 460 916 56 234 78 549 56 775 -43 432 -211 857 -473 1197 -313 406 -762
708 -1254 843 -223 61 -342 77 -609 80 -132 2 -274 0 -315 -5z m495 -280 c255
-28 501 -100 723 -210 231 -115 403 -241 577 -421 321 -334 512 -736 566
-1193 15 -128 6 -462 -15 -576 -62 -331 -184 -614 -375 -871 -697 -937 -2025
-1126 -2969 -422 -102 76 -288 257 -372 363 -200 252 -342 553 -405 862 -90
446 -35 890 161 1297 294 610 867 1039 1534 1150 69 11 143 22 165 24 89 8
325 6 410 -3z"/>
<path d="M2335 4094 c-16 -2 -72 -9 -123 -15 -295 -34 -611 -139 -812 -269
-300 -195 -478 -481 -441 -711 6 -34 17 -72 26 -86 19 -29 73 -63 100 -63 14
0 16 -3 7 -9 -9 -5 -12 -30 -10 -87 l3 -79 1525 0 1525 0 3 83 c2 62 0 82 -10
82 -7 0 6 10 30 21 60 30 75 64 80 180 4 86 1 104 -25 181 -40 115 -120 233
-230 338 -249 241 -608 382 -1092 430 -94 9 -485 12 -556 4z"/>
<path d="M976 2690 c-85 -26 -121 -138 -76 -238 15 -33 29 -47 62 -62 42 -19
73 -20 931 -20 527 0 887 4 885 9 -7 19 -391 303 -421 312 -40 11 -1342 10
-1381 -1z"/>
<path d="M3638 2690 c-27 -8 -410 -294 -416 -311 -2 -5 194 -9 482 -9 533 0
529 0 579 59 24 30 27 40 27 113 0 79 -1 81 -34 113 -19 18 -49 35 -66 39 -46
9 -540 6 -572 -4z"/>
<path d="M953 2284 c-52 -26 -68 -59 -68 -141 0 -82 17 -114 78 -149 l37 -20
-35 -13 c-19 -7 -40 -21 -46 -33 -15 -27 -3 -65 22 -73 19 -6 21 -12 16 -57
-15 -120 36 -206 146 -247 149 -55 145 -55 1407 -59 1217 -3 1345 0 1497 39
160 40 213 100 213 241 0 71 2 78 20 78 26 0 54 43 45 70 -4 12 -25 29 -48 39
l-42 18 37 16 c56 24 78 67 78 155 0 68 -2 74 -34 110 l-34 37 -566 3 -566 2
-37 -25 c-49 -33 -97 -33 -146 1 -36 24 -45 26 -135 22 l-97 -3 -283 -213
c-155 -117 -296 -218 -312 -224 -21 -7 -39 -7 -60 0 -16 6 -157 107 -312 224
l-281 213 -231 3 c-196 2 -236 0 -263 -14z"/>
</g>
</svg>
